<svg width="52" height="46" viewBox="0 0 52 46" fill="none" xmlns="http://www.w3.org/2000/svg">
<path d="M6.07834 24.9219L6.06457 24.9076L6.05051 24.8935C0.990082 19.8331 0.990082 11.6285 6.05051 6.56808C10.9292 1.68934 18.732 1.51411 23.8192 6.04273C23.866 6.08444 23.9393 6.15743 24.0567 6.27424C24.078 6.29547 24.1008 6.31814 24.1251 6.34234C24.1864 6.40327 24.2702 6.48632 24.3471 6.55719C24.3816 6.589 24.4493 6.65058 24.5307 6.71397C24.5678 6.74289 24.6512 6.80644 24.763 6.87232C24.819 6.90528 24.9185 6.96061 25.0495 7.01245C25.1562 7.05464 25.4276 7.15386 25.7902 7.15386C26.1528 7.15385 26.4243 7.05461 26.5309 7.01241C26.662 6.96055 26.7615 6.90521 26.8175 6.87224C26.9293 6.80635 27.0126 6.74278 27.0498 6.71385C27.1312 6.65045 27.1989 6.58886 27.2334 6.55705C27.3103 6.48617 27.3941 6.40311 27.4553 6.3422C27.4796 6.3181 27.5022 6.29552 27.5235 6.27437C27.6409 6.15741 27.7142 6.0844 27.7611 6.04272C32.8483 1.51407 40.651 1.68933 45.5298 6.56809C50.5593 11.5975 50.3339 20.0129 45.5187 24.9047L45.5074 24.9162L45.4962 24.9279L46.944 26.3077C45.4962 24.9279 45.4962 24.928 45.4961 24.9281L45.4955 24.9287L45.4931 24.9312L45.4833 24.9415L45.4438 24.9828L45.2883 25.1455C45.1517 25.2883 44.9506 25.4981 44.6935 25.7654C44.1794 26.3001 43.4418 27.0644 42.5492 27.9818C40.763 29.8175 38.3597 32.2623 35.8855 34.7047C33.4062 37.1521 30.877 39.5761 28.8331 41.38C27.8067 42.2858 26.9365 43.0052 26.2739 43.4877C26.1181 43.6012 25.9827 43.695 25.8668 43.7713C25.7491 43.6943 25.6113 43.5994 25.4526 43.4845C24.7853 43.0013 23.9087 42.2814 22.8749 41.3754C20.816 39.5711 18.2669 37.1467 15.7679 34.6992C13.274 32.2567 10.851 29.8118 9.05005 27.976C8.14999 27.0585 7.40623 26.2941 6.88782 25.7595C6.62863 25.4921 6.42581 25.2823 6.28801 25.1395L6.13116 24.9768L6.09134 24.9354L6.08144 24.9251L6.07903 24.9226L6.07847 24.922C6.07837 24.9219 6.07834 24.9219 4.6363 26.3077L6.07834 24.9219ZM25.4318 44.0216C25.4321 44.0209 25.4429 44.0159 25.4632 44.0088C25.4416 44.0188 25.4314 44.0224 25.4318 44.0216ZM26.2718 44.008C26.2919 44.015 26.3026 44.0199 26.3029 44.0206C26.3033 44.0213 26.2932 44.0178 26.2718 44.008Z" fill="#1DB954"/>
<path d="M6.07834 24.9219L6.06457 24.9076L6.05051 24.8935C0.990082 19.8331 0.990082 11.6285 6.05051 6.56808C10.9292 1.68934 18.732 1.51411 23.8192 6.04273C23.866 6.08444 23.9393 6.15743 24.0567 6.27424C24.078 6.29547 24.1008 6.31814 24.1251 6.34234C24.1864 6.40327 24.2702 6.48632 24.3471 6.55719C24.3816 6.589 24.4493 6.65058 24.5307 6.71397C24.5678 6.74289 24.6512 6.80644 24.763 6.87232C24.819 6.90528 24.9185 6.96061 25.0495 7.01245C25.1562 7.05464 25.4276 7.15386 25.7902 7.15386C26.1528 7.15385 26.4243 7.05461 26.5309 7.01241C26.662 6.96055 26.7615 6.90521 26.8175 6.87224C26.9293 6.80635 27.0126 6.74278 27.0498 6.71385C27.1312 6.65045 27.1989 6.58886 27.2334 6.55705C27.3103 6.48617 27.3941 6.40311 27.4553 6.3422C27.4796 6.3181 27.5022 6.29552 27.5235 6.27437C27.6409 6.15741 27.7142 6.0844 27.7611 6.04272C32.8483 1.51407 40.651 1.68933 45.5298 6.56809C50.5593 11.5975 50.3339 20.0129 45.5187 24.9047L45.5074 24.9162L45.4962 24.9279L46.944 26.3077C45.4962 24.9279 45.4962 24.928 45.4961 24.9281L45.4955 24.9287L45.4931 24.9312L45.4833 24.9415L45.4438 24.9828L45.2883 25.1455C45.1517 25.2883 44.9506 25.4981 44.6935 25.7654C44.1794 26.3001 43.4418 27.0644 42.5492 27.9818C40.763 29.8175 38.3597 32.2623 35.8855 34.7047C33.4062 37.1521 30.877 39.5761 28.8331 41.38C27.8067 42.2858 26.9365 43.0052 26.2739 43.4877C26.1181 43.6012 25.9827 43.695 25.8668 43.7713C25.7491 43.6943 25.6113 43.5994 25.4526 43.4845C24.7853 43.0013 23.9087 42.2814 22.8749 41.3754C20.816 39.5711 18.2669 37.1467 15.7679 34.6992C13.274 32.2567 10.851 29.8118 9.05005 27.976C8.14999 27.0585 7.40623 26.2941 6.88782 25.7595C6.62863 25.4921 6.42581 25.2823 6.28801 25.1395L6.13116 24.9768L6.09134 24.9354L6.08144 24.9251L6.07903 24.9226L6.07847 24.922C6.07837 24.9219 6.07834 24.9219 4.6363 26.3077L6.07834 24.9219ZM25.4318 44.0216C25.4321 44.0209 25.4429 44.0159 25.4632 44.0088C25.4416 44.0188 25.4314 44.0224 25.4318 44.0216ZM26.2718 44.008C26.2919 44.015 26.3026 44.0199 26.3029 44.0206C26.3033 44.0213 26.2932 44.0178 26.2718 44.008Z" fill="white"/>
<path d="M6.07834 24.9219L6.06457 24.9076L6.05051 24.8935C0.990082 19.8331 0.990082 11.6285 6.05051 6.56808C10.9292 1.68934 18.732 1.51411 23.8192 6.04273C23.866 6.08444 23.9393 6.15743 24.0567 6.27424C24.078 6.29547 24.1008 6.31814 24.1251 6.34234C24.1864 6.40327 24.2702 6.48632 24.3471 6.55719C24.3816 6.589 24.4493 6.65058 24.5307 6.71397C24.5678 6.74289 24.6512 6.80644 24.763 6.87232C24.819 6.90528 24.9185 6.96061 25.0495 7.01245C25.1562 7.05464 25.4276 7.15386 25.7902 7.15386C26.1528 7.15385 26.4243 7.05461 26.5309 7.01241C26.662 6.96055 26.7615 6.90521 26.8175 6.87224C26.9293 6.80635 27.0126 6.74278 27.0498 6.71385C27.1312 6.65045 27.1989 6.58886 27.2334 6.55705C27.3103 6.48617 27.3941 6.40311 27.4553 6.3422C27.4796 6.3181 27.5022 6.29552 27.5235 6.27437C27.6409 6.15741 27.7142 6.0844 27.7611 6.04272C32.8483 1.51407 40.651 1.68933 45.5298 6.56809C50.5593 11.5975 50.3339 20.0129 45.5187 24.9047L45.5074 24.9162L45.4962 24.9279L46.944 26.3077C45.4962 24.9279 45.4962 24.928 45.4961 24.9281L45.4955 24.9287L45.4931 24.9312L45.4833 24.9415L45.4438 24.9828L45.2883 25.1455C45.1517 25.2883 44.9506 25.4981 44.6935 25.7654C44.1794 26.3001 43.4418 27.0644 42.5492 27.9818C40.763 29.8175 38.3597 32.2623 35.8855 34.7047C33.4062 37.1521 30.877 39.5761 28.8331 41.38C27.8067 42.2858 26.9365 43.0052 26.2739 43.4877C26.1181 43.6012 25.9827 43.695 25.8668 43.7713C25.7491 43.6943 25.6113 43.5994 25.4526 43.4845C24.7853 43.0013 23.9087 42.2814 22.8749 41.3754C20.816 39.5711 18.2669 37.1467 15.7679 34.6992C13.274 32.2567 10.851 29.8118 9.05005 27.976C8.14999 27.0585 7.40623 26.2941 6.88782 25.7595C6.62863 25.4921 6.42581 25.2823 6.28801 25.1395L6.13116 24.9768L6.09134 24.9354L6.08144 24.9251L6.07903 24.9226L6.07847 24.922C6.07837 24.9219 6.07834 24.9219 4.6363 26.3077L6.07834 24.9219ZM25.4318 44.0216C25.4321 44.0209 25.4429 44.0159 25.4632 44.0088C25.4416 44.0188 25.4314 44.0224 25.4318 44.0216ZM26.2718 44.008C26.2919 44.015 26.3026 44.0199 26.3029 44.0206C26.3033 44.0213 26.2932 44.0178 26.2718 44.008Z" stroke="#1DB954" stroke-width="4"/>
<path d="M6.07834 24.9219L6.06457 24.9076L6.05051 24.8935C0.990082 19.8331 0.990082 11.6285 6.05051 6.56808C10.9292 1.68934 18.732 1.51411 23.8192 6.04273C23.866 6.08444 23.9393 6.15743 24.0567 6.27424C24.078 6.29547 24.1008 6.31814 24.1251 6.34234C24.1864 6.40327 24.2702 6.48632 24.3471 6.55719C24.3816 6.589 24.4493 6.65058 24.5307 6.71397C24.5678 6.74289 24.6512 6.80644 24.763 6.87232C24.819 6.90528 24.9185 6.96061 25.0495 7.01245C25.1562 7.05464 25.4276 7.15386 25.7902 7.15386C26.1528 7.15385 26.4243 7.05461 26.5309 7.01241C26.662 6.96055 26.7615 6.90521 26.8175 6.87224C26.9293 6.80635 27.0126 6.74278 27.0498 6.71385C27.1312 6.65045 27.1989 6.58886 27.2334 6.55705C27.3103 6.48617 27.3941 6.40311 27.4553 6.3422C27.4796 6.3181 27.5022 6.29552 27.5235 6.27437C27.6409 6.15741 27.7142 6.0844 27.7611 6.04272C32.8483 1.51407 40.651 1.68933 45.5298 6.56809C50.5593 11.5975 50.3339 20.0129 45.5187 24.9047L45.5074 24.9162L45.4962 24.9279L46.944 26.3077C45.4962 24.9279 45.4962 24.928 45.4961 24.9281L45.4955 24.9287L45.4931 24.9312L45.4833 24.9415L45.4438 24.9828L45.2883 25.1455C45.1517 25.2883 44.9506 25.4981 44.6935 25.7654C44.1794 26.3001 43.4418 27.0644 42.5492 27.9818C40.763 29.8175 38.3597 32.2623 35.8855 34.7047C33.4062 37.1521 30.877 39.5761 28.8331 41.38C27.8067 42.2858 26.9365 43.0052 26.2739 43.4877C26.1181 43.6012 25.9827 43.695 25.8668 43.7713C25.7491 43.6943 25.6113 43.5994 25.4526 43.4845C24.7853 43.0013 23.9087 42.2814 22.8749 41.3754C20.816 39.5711 18.2669 37.1467 15.7679 34.6992C13.274 32.2567 10.851 29.8118 9.05005 27.976C8.14999 27.0585 7.40623 26.2941 6.88782 25.7595C6.62863 25.4921 6.42581 25.2823 6.28801 25.1395L6.13116 24.9768L6.09134 24.9354L6.08144 24.9251L6.07903 24.9226L6.07847 24.922C6.07837 24.9219 6.07834 24.9219 4.6363 26.3077L6.07834 24.9219ZM25.4318 44.0216C25.4321 44.0209 25.4429 44.0159 25.4632 44.0088C25.4416 44.0188 25.4314 44.0224 25.4318 44.0216ZM26.2718 44.008C26.2919 44.015 26.3026 44.0199 26.3029 44.0206C26.3033 44.0213 26.2932 44.0178 26.2718 44.008Z" stroke="white" stroke-width="4"/>
</svg>
