<svg width="19" height="20" viewBox="0 0 19 20" fill="none" xmlns="http://www.w3.org/2000/svg">
<path fill-rule="evenodd" clip-rule="evenodd" d="M1.07239 9.60669C1.07239 9.51017 1.15063 9.43193 1.24714 9.43193L9.31052 9.43193L9.31052 1.36855C9.31052 1.27204 9.38877 1.19379 9.48528 1.19379C9.5818 1.19379 9.66004 1.27204 9.66004 1.36855L9.66004 9.43193L17.7234 9.43193C17.8199 9.43193 17.8982 9.51017 17.8982 9.60669C17.8982 9.70321 17.8199 9.78145 17.7234 9.78145L9.66004 9.78145L9.66004 17.8448C9.66004 17.9413 9.5818 18.0196 9.48528 18.0196C9.38877 18.0196 9.31052 17.9413 9.31052 17.8448L9.31052 9.78145L1.24714 9.78145C1.15063 9.78145 1.07239 9.70321 1.07239 9.60669Z" fill="#F1F1F1" stroke="#F1F1F1" stroke-width="2" stroke-linecap="round" stroke-linejoin="round"/>
</svg>
