<svg width="1736" height="388" viewBox="0 0 1736 388" fill="none" xmlns="http://www.w3.org/2000/svg">
<path d="M50.3218 262.394C38.0626 274.653 38.0626 294.529 50.3218 306.789C50.3218 306.789 89.9336 348.007 94.8813 348.007C99.829 348.007 139.11 306.789 139.11 306.789C150.758 294.955 151.37 274.654 139.11 262.394C127.29 250.574 108.389 250.151 96.0615 261.125C95.6037 261.532 94.8058 262.394 94.7161 262.394C94.6264 262.394 93.8283 261.532 93.3705 261.125C81.0432 250.151 62.1419 250.574 50.3218 262.394Z" fill="white" fill-opacity="0.2"/>
<path d="M1586.32 62.3943C1574.06 74.6535 1574.06 94.5295 1586.32 106.789C1586.32 106.789 1625.93 148.007 1630.88 148.007C1635.83 148.007 1675.11 106.789 1675.11 106.789C1686.76 94.9555 1687.37 74.6535 1675.11 62.3944C1663.29 50.5741 1644.39 50.1509 1632.06 61.1247C1631.6 61.5322 1630.81 62.3943 1630.72 62.3943C1630.63 62.3943 1629.83 61.5322 1629.37 61.1247C1617.04 50.151 1598.14 50.5741 1586.32 62.3943Z" fill="white" fill-opacity="0.2"/>
<path d="M1058.32 58.3943C1046.06 70.6535 1046.06 90.5295 1058.32 102.789C1058.32 102.789 1097.93 144.007 1102.88 144.007C1107.83 144.007 1147.11 102.789 1147.11 102.789C1158.76 90.9555 1159.37 70.6535 1147.11 58.3944C1135.29 46.5741 1116.39 46.1509 1104.06 57.1247C1103.6 57.5322 1102.81 58.3943 1102.72 58.3943C1102.63 58.3943 1101.83 57.5322 1101.37 57.1247C1089.04 46.151 1070.14 46.5741 1058.32 58.3943Z" fill="white" fill-opacity="0.2"/>
<path d="M887.322 101.394C875.063 113.653 875.063 133.529 887.322 145.789C887.322 145.789 926.934 187.007 931.881 187.007C936.829 187.007 976.11 145.789 976.11 145.789C987.758 133.955 988.37 113.654 976.11 101.394C964.29 89.5741 945.389 89.1509 933.061 100.125C932.604 100.532 931.806 101.394 931.716 101.394C931.626 101.394 930.828 100.532 930.371 100.125C918.043 89.151 899.142 89.5741 887.322 101.394Z" fill="white" fill-opacity="0.2"/>
<path d="M460.132 251.072C450.723 260.481 450.723 275.735 460.132 285.144C460.132 285.144 490.533 316.779 494.33 316.779C498.128 316.778 528.276 285.144 528.276 285.144C537.215 276.062 537.684 260.481 528.275 251.072C519.204 242 504.697 241.675 495.236 250.097C494.885 250.41 494.272 251.072 494.204 251.072C494.135 251.072 493.522 250.41 493.171 250.097C483.71 241.675 469.203 242 460.132 251.072Z" fill="white" fill-opacity="0.09"/>
<path d="M1384.13 229.072C1374.72 238.481 1374.72 253.735 1384.13 263.144C1384.13 263.144 1414.53 294.779 1418.33 294.779C1422.13 294.778 1452.28 263.144 1452.28 263.144C1461.22 254.062 1461.68 238.481 1452.28 229.072C1443.2 220 1428.7 219.675 1419.24 228.097C1418.88 228.41 1418.27 229.072 1418.2 229.072C1418.13 229.072 1417.52 228.41 1417.17 228.097C1407.71 219.675 1393.2 220 1384.13 229.072Z" fill="white" fill-opacity="0.09"/>
<path d="M80.4601 56.6025C64.8298 72.2329 64.8298 97.5747 80.4601 113.205C80.4601 113.205 130.965 165.759 137.273 165.759C143.582 165.758 193.665 113.205 193.665 113.205C208.516 98.1178 209.296 72.2329 193.665 56.6026C178.594 41.5318 154.495 40.9922 138.778 54.9837C138.194 55.5033 137.177 56.6025 137.063 56.6025C136.948 56.6025 135.931 55.5033 135.347 54.9837C119.63 40.9923 95.5308 41.5318 80.4601 56.6025Z" fill="white" fill-opacity="0.1"/>
<path d="M720.845 235.488C707.749 253.296 711.569 278.349 729.377 291.444C729.377 291.444 787.228 335.784 793.464 334.832C799.7 333.881 841.289 274.379 841.289 274.379C853.696 257.225 850.564 231.518 832.756 218.423C815.585 205.796 791.68 208.896 778.252 225.097C777.753 225.698 776.913 226.938 776.8 226.956C776.687 226.973 775.516 226.04 774.86 225.614C757.213 214.152 733.471 218.318 720.845 235.488Z" fill="white" fill-opacity="0.1"/>
<path d="M364.514 76.8439C355.445 85.9135 355.445 100.618 364.514 109.688C364.514 109.688 393.82 140.182 397.48 140.182C401.141 140.182 430.202 109.688 430.202 109.688C438.819 100.933 439.272 85.9135 430.202 76.8439C421.457 68.0991 407.473 67.7859 398.353 75.9046C398.015 76.2061 397.424 76.8439 397.358 76.8439C397.292 76.8439 396.701 76.2061 396.363 75.9046C387.243 67.786 373.259 68.0991 364.514 76.8439Z" fill="white" fill-opacity="0.15"/>
<path d="M1297.51 95.8439C1288.44 104.913 1288.44 119.618 1297.51 128.688C1297.51 128.688 1326.82 159.182 1330.48 159.182C1334.14 159.182 1363.2 128.688 1363.2 128.688C1371.82 119.933 1372.27 104.914 1363.2 95.8439C1354.46 87.0991 1340.47 86.7859 1331.35 94.9046C1331.01 95.2061 1330.42 95.8439 1330.36 95.8439C1330.29 95.8439 1329.7 95.2061 1329.36 94.9046C1320.24 86.786 1306.26 87.0991 1297.51 95.8439Z" fill="white" fill-opacity="0.15"/>
<path d="M996.394 247.063C986.056 254.656 983.832 269.192 991.426 279.529C991.426 279.529 1015.78 314.105 1019.4 314.659C1023.02 315.212 1056.36 289.465 1056.36 289.465C1066.2 282.114 1068.92 267.336 1061.33 256.999C1054 247.032 1040.23 244.607 1029.99 251.253C1029.61 251.5 1028.93 252.041 1028.86 252.031C1028.79 252.021 1028.31 251.301 1028.02 250.952C1020.23 241.547 1006.36 239.741 996.394 247.063Z" fill="white" fill-opacity="0.15"/>
<path d="M1551.82 254.498C1541.48 262.092 1539.26 276.627 1546.85 286.964C1546.85 286.964 1571.21 321.541 1574.83 322.094C1578.45 322.648 1611.79 296.9 1611.79 296.9C1621.63 289.55 1624.35 274.771 1616.75 264.434C1609.43 254.467 1595.66 252.042 1585.41 258.688C1585.03 258.935 1584.35 259.476 1584.29 259.466C1584.22 259.456 1583.74 258.736 1583.45 258.387C1575.66 248.982 1561.79 247.177 1551.82 254.498Z" fill="white" fill-opacity="0.15"/>
<path d="M601.514 140.844C592.445 149.913 592.445 164.618 601.514 173.688C601.514 173.688 630.82 204.182 634.48 204.182C638.141 204.182 667.202 173.688 667.202 173.688C675.819 164.933 676.272 149.914 667.202 140.844C658.457 132.099 644.473 131.786 635.353 139.905C635.015 140.206 634.424 140.844 634.358 140.844C634.292 140.844 633.701 140.206 633.363 139.905C624.243 131.786 610.259 132.099 601.514 140.844Z" fill="white" fill-opacity="0.15"/>
<path d="M260.595 169.084C255.326 174.353 255.326 182.897 260.595 188.167C260.595 188.167 277.623 205.886 279.75 205.886C281.877 205.886 298.763 188.167 298.763 188.167C303.77 183.081 304.032 174.353 298.763 169.084C293.682 164.003 285.556 163.821 280.257 168.538C280.061 168.713 279.718 169.084 279.679 169.084C279.64 169.084 279.297 168.713 279.101 168.538C273.802 163.821 265.676 164.003 260.595 169.084Z" fill="white" fill-opacity="0.15"/>
<path d="M1208.6 217.084C1203.33 222.353 1203.33 230.897 1208.6 236.167C1208.6 236.167 1225.62 253.886 1227.75 253.886C1229.88 253.886 1246.76 236.167 1246.76 236.167C1251.77 231.081 1252.03 222.353 1246.76 217.084C1241.68 212.003 1233.56 211.821 1228.26 216.538C1228.06 216.713 1227.72 217.084 1227.68 217.084C1227.64 217.084 1227.3 216.713 1227.1 216.538C1221.8 211.821 1213.68 212.003 1208.6 217.084Z" fill="white" fill-opacity="0.15"/>
</svg>
